HIERARCHY
ROOT Hips
{
	OFFSET 0.00 0.00 0.00
	CHANNELS 6 Xposition Yposition Zposition Xrotation Yrotation Zrotation
	JOINT Spine
	{
		OFFSET 0.00000 1.92919 2.89379
		CHANNELS 3 Xrotation Yrotation Zrotation
		JOINT Spine1
		{
			OFFSET 0.00000 0.67000 3.79977
			CHANNELS 3 Xrotation Yrotation Zrotation
			JOINT Spine2
			{
				OFFSET 0.00000 0.33628 3.84370
				CHANNELS 3 Xrotation Yrotation Zrotation
				JOINT Spine3
				{
					OFFSET 0.00000 0.00000 3.85838
					CHANNELS 3 Xrotation Yrotation Zrotation
					JOINT Neck
					{
						OFFSET 0.00000 -1.44688 10.12826
						CHANNELS 3 Xrotation Yrotation Zrotation
						JOINT Head
						{
							OFFSET 0.00000 -0.92125 5.22468
							CHANNELS 3 Xrotation Yrotation Zrotation
							End Site
							{
								OFFSET 0.00000 0.00001 6.24576
							}
						}
					}
					JOINT RightShoulder
					{
						OFFSET -1.19724 -1.99539 6.46510
						CHANNELS 3 Xrotation Yrotation Zrotation
						JOINT RightArm
						{
							OFFSET -5.94629 0.00000 0.00000
							CHANNELS 3 Xrotation Yrotation Zrotation
							JOINT RightForeArm
							{
								OFFSET -11.02134 0.00000 0.00000
								CHANNELS 3 Xrotation Yrotation Zrotation
								JOINT RightHand
								{
									OFFSET -10.43440 0.00000 0.00000
									CHANNELS 3 Xrotation Yrotation Zrotation
									JOINT RightHandEnd
									{
										OFFSET -2.82937 0.00000 0.00000
										CHANNELS 3 Xrotation Yrotation Zrotation
										End Site
										{
											OFFSET -2.82937 0.00000 0.00000
										}
									}
									JOINT RightHandThumb1
									{
										OFFSET -1.13175 -1.88625 -0.75450
										CHANNELS 3 Yrotation Xrotation Zrotation
										End Site
										{
											OFFSET -2.73296 -0.73229 0.00000
										}
									}
								}
							}
						}
					}
					JOINT LeftShoulder
					{
						OFFSET 1.19724 -1.99539 6.46510
						CHANNELS 3 Xrotation Yrotation Zrotation
						JOINT LeftArm
						{
							OFFSET 5.94629 0.00000 0.00000
							CHANNELS 3 Xrotation Yrotation Zrotation
							JOINT LeftForeArm
							{
								OFFSET 11.02134 0.00000 0.00000
								CHANNELS 3 Xrotation Yrotation Zrotation
								JOINT LeftHand
								{
									OFFSET 10.43440 0.00000 0.00000
									CHANNELS 3 Xrotation Yrotation Zrotation
									JOINT LeftHandEnd
									{
										OFFSET 2.82937 0.00000 0.00000
										CHANNELS 3 Xrotation Yrotation Zrotation
										End Site
										{
											OFFSET 2.82937 0.00000 0.00000
										}
									}
									JOINT LeftHandThumb1
									{
										OFFSET 1.13175 -1.88625 -0.75450
										CHANNELS 3 Yrotation Xrotation Zrotation
										End Site
										{
											OFFSET 2.73296 -0.73229 0.00000
										}
									}
								}
							}
						}
					}
				}
			}
		}
	}
	JOINT RightUpLeg
	{
		OFFSET -3.55181 0.00000 -1.03761
		CHANNELS 3 Xrotation Yrotation Zrotation
		JOINT RightLeg
		{
			OFFSET 0.00001 0.00000 -15.86106
			CHANNELS 3 Xrotation Yrotation Zrotation
			JOINT RightFoot
			{
				OFFSET 0.00001 0.00000 -16.30493
				CHANNELS 3 Xrotation Yrotation Zrotation
				JOINT RightToeBase
				{
					OFFSET 0.00000 -5.76215 -2.09725
					CHANNELS 3 Xrotation Yrotation Zrotation
					End Site
					{
						OFFSET 0.00000 -2.87338 -0.00000
					}
				}
			}
		}
	}
	JOINT LeftUpLeg
	{
		OFFSET 3.55181 0.00000 -1.03761
		CHANNELS 3 Xrotation Yrotation Zrotation
		JOINT LeftLeg
		{
			OFFSET 0.00001 0.00000 -15.86106
			CHANNELS 3 Xrotation Yrotation Zrotation
			JOINT LeftFoot
			{
				OFFSET 0.00001 0.00000 -16.30493
				CHANNELS 3 Xrotation Yrotation Zrotation
				JOINT LeftToeBase
				{
					OFFSET 0.00000 -5.76215 -2.09725
					CHANNELS 3 Xrotation Yrotation Zrotation
					End Site
					{
						OFFSET 0.00000 -2.87338 -0.00000
					}
				}
			}
		}
	}
}
MOTION
Frames: 16
Frame Time: 0.008342
 15.9127 -32.4156 35.7553 -1.9992 -0.3452 -89.1431 2.0984 0.8235 -0.1343 -0.1478 -1.9049 -0.1561 6.3475 2.8907 2.6703 2.3386 1.4186 -1.6416 5.6825 3.6853 -1.8288 1.2123 -1.5005 -7.0382 -15.9340 12.6413 21.6695 -8.2921 13.9167 31.5363 0.0000 0.0000 37.9123 12.0727 32.5315 16.6406 -0.0000 0.0000 0.0000 0.0000 -0.0000 -0.0000 14.2002 6.1671 -3.7359 38.7278 34.3242 -46.4945 -0.0001 -0.0001 -95.6343 2.7522 0.5160 15.1159 -0.0000 -0.0000 0.0000 0.0000 -0.0000 -0.0000 -22.6226 11.4359 -7.7549 48.5109 0.0000 0.0000 5.9692 -4.8198 -28.5221 -20.6070 0.0000 -0.0000 -9.7593 3.0425 16.2244 24.2717 0.0000 0.0000 -6.8650 -9.2405 2.5400 -14.1640 0.0000 -0.0000
 15.9198 -32.5290 35.7365 -2.5260 -0.1968 -89.5517 2.3067 1.1544 -0.1982 -0.0299 -1.8653 -0.1564 6.2630 2.8887 2.5933 2.3076 1.4225 -1.6788 5.6098 3.7978 -1.6786 1.1159 -1.3562 -6.8417 -15.9300 12.7334 21.6170 -8.2833 13.7527 31.1817 0.0000 0.0000 37.7582 11.1293 31.7481 16.9538 0.0000 0.0000 0.0000 0.0000 -0.0000 -0.0000 14.2598 6.0836 -3.7770 38.8650 34.1818 -46.7486 -0.0001 -0.0001 -95.6227 2.6423 0.3262 14.7353 0.0000 0.0000 -0.0000 0.0000 -0.0000 0.0000 -23.7783 11.8552 -6.6827 49.9208 0.0000 0.0000 7.2687 -4.5483 -29.2516 -21.8472 0.0000 -0.0000 -9.3459 3.7104 16.9226 23.8057 0.0000 0.0000 -6.8009 -9.3521 2.3144 -14.1264 0.0000 -0.0000
 15.9221 -32.6381 35.7175 -3.0253 -0.0009 -89.9347 2.5462 1.4638 -0.2652 0.0891 -1.8163 -0.1573 6.1905 2.8836 2.4994 2.2769 1.4224 -1.7150 5.5319 3.8910 -1.5258 1.0212 -1.1953 -6.6222 -15.9318 12.8168 21.5474 -8.3160 13.5469 30.8217 0.0000 0.0000 37.6708 10.2161 30.8645 17.2340 0.0000 0.0000 -0.0000 0.0000 0.0000 0.0000 14.3183 5.9933 -3.8310 38.9820 34.0428 -46.9680 -0.0001 -0.0001 -95.6345 2.5083 0.1606 14.3214 -0.0000 0.0000 -0.0000 0.0000 -0.0000 0.0000 -24.8462 12.2144 -5.6817 51.2444 0.0000 0.0000 8.4529 -4.2564 -30.0867 -23.1049 0.0000 -0.0000 -8.9025 4.3571 17.5570 23.3656 0.0000 0.0000 -6.7402 -9.4617 2.1096 -14.1067 0.0000 -0.0000
 15.9200 -32.7428 35.6983 -3.4963 0.2350 -90.2866 2.8108 1.7479 -0.3312 0.2067 -1.7494 -0.1561 6.1306 2.8685 2.3811 2.2479 1.4204 -1.7548 5.4481 3.9639 -1.3681 0.9319 -1.0166 -6.3775 -15.9318 12.8900 21.4544 -8.3947 13.3045 30.4655 0.0000 0.0000 37.6521 9.3720 29.8945 17.4665 0.0000 0.0000 0.0000 -0.0000 -0.0000 -0.0000 14.3708 5.8997 -3.8916 39.0833 33.9037 -47.1545 -0.0001 -0.0001 -95.6651 2.3477 0.0308 13.8748 0.0000 0.0000 -0.0000 0.0000 -0.0000 -0.0000 -25.8247 12.5188 -4.7550 52.4844 0.0000 0.0000 9.4654 -3.9513 -31.0221 -24.3376 0.0000 -0.0000 -8.4362 4.9843 18.1113 22.9514 0.0000 0.0000 -6.6805 -9.5691 1.9362 -14.1035 0.0000 -0.0000
 15.9149 -32.8425 35.6789 -3.9342 0.4785 -90.6034 3.0722 2.0076 -0.3965 0.3182 -1.6820 -0.1581 6.0853 2.8566 2.2408 2.2207 1.4160 -1.7951 5.3601 4.0161 -1.2088 0.8495 -0.8214 -6.1067 -15.9327 12.9454 21.3352 -8.5084 13.0341 30.1112 0.0000 0.0000 37.7115 8.6327 28.8583 17.6366 -0.0000 -0.0000 0.0000 -0.0000 -0.0000 0.0000 14.4152 5.8069 -3.9624 39.1681 33.7613 -47.3042 -0.0001 -0.0001 -95.7102 2.1539 -0.0556 13.3969 0.0000 -0.0000 0.0000 -0.0000 0.0000 0.0000 -26.7437 12.7662 -3.9012 53.6479 0.0000 0.0000 10.2652 -3.6346 -32.0425 -25.5068 0.0000 -0.0000 -7.9875 5.5862 18.5694 22.5744 0.0000 0.0000 -6.6232 -9.6763 1.8057 -14.1123 0.0000 -0.0000
 15.9066 -32.9381 35.6594 -4.3484 0.7246 -90.8863 3.3258 2.2462 -0.4594 0.4218 -1.6033 -0.1592 6.0546 2.8388 2.0776 2.1957 1.4117 -1.8384 5.2700 4.0509 -1.0483 0.7779 -0.6118 -5.8088 -15.9227 12.9856 21.1894 -8.6555 12.7444 29.7537 0.0000 0.0000 37.8572 8.0282 27.7800 17.7332 0.0000 -0.0000 0.0000 -0.0000 0.0000 -0.0000 14.4521 5.7173 -4.0393 39.2407 33.6125 -47.4247 -0.0001 -0.0001 -95.7629 1.9186 -0.0952 12.8913 -0.0000 0.0000 -0.0000 0.0000 -0.0000 0.0000 -27.6064 12.9709 -3.1131 54.7449 0.0000 0.0000 10.8233 -3.2968 -33.1110 -26.5809 0.0000 -0.0000 -7.5540 6.1751 18.9251 22.2227 0.0000 0.0000 -6.5637 -9.7834 1.7274 -14.1287 0.0000 -0.0000
 15.8947 -33.0295 35.6404 -4.7391 0.9722 -91.1366 3.5715 2.4704 -0.5187 0.5167 -1.5346 -0.1668 6.0353 2.8323 1.8978 2.1737 1.4054 -1.8819 5.1814 4.0698 -0.8882 0.7191 -0.3902 -5.4848 -15.9025 13.0065 21.0145 -8.8205 12.4434 29.3931 0.0000 0.0000 38.0960 7.5819 26.6869 17.7470 -0.0000 -0.0000 -0.0000 0.0000 0.0000 0.0000 14.4745 5.6344 -4.1245 39.3102 33.4581 -47.5140 -0.0001 -0.0001 -95.8213 1.6286 -0.0829 12.3609 0.0000 -0.0000 0.0000 0.0000 0.0000 0.0000 -28.4087 13.1352 -2.3857 55.7789 0.0000 0.0000 11.1302 -2.9256 -34.1847 -27.5397 0.0000 -0.0000 -7.1296 6.7510 19.1807 21.8877 0.0000 0.0000 -6.5020 -9.8908 1.7000 -14.1480 0.0000 -0.0000
 15.8788 -33.1176 35.6220 -5.1121 1.2112 -91.3600 3.7979 2.6712 -0.5738 0.6023 -1.4388 -0.1665 6.0281 2.8042 1.6962 2.1551 1.4036 -1.9320 5.0962 4.0777 -0.7246 0.6751 -0.1599 -5.1356 -15.8611 13.0098 20.8154 -8.9992 12.1405 29.0249 -0.0000 0.0000 38.4326 7.2997 25.6041 17.6825 0.0000 -0.0000 0.0000 -0.0000 -0.0000 0.0000 14.4868 5.5630 -4.2035 39.3795 33.2904 -47.5888 -0.0001 -0.0001 -95.8750 1.2724 -0.0210 11.8082 -0.0000 -0.0000 0.0000 -0.0000 0.0000 -0.0000 -29.1625 13.2667 -1.7098 56.7569 0.0000 0.0000 11.1940 -2.5088 -35.2123 -28.3755 0.0000 -0.0000 -6.7184 7.3204 19.3415 21.5591 0.0000 0.0000 -6.4361 -9.9987 1.7262 -14.1658 0.0000 -0.0000
 15.8579 -33.2023 35.6049 -5.4678 1.4521 -91.5613 4.0161 2.8584 -0.6233 0.6786 -1.3446 -0.1696 6.0284 2.7779 1.4866 2.1401 1.4043 -1.9860 5.0194 4.0758 -0.5587 0.6466 0.0752 -4.7648 -15.7991 12.9930 20.5889 -9.1748 11.8399 28.6506 -0.0000 0.0000 38.8697 7.1838 24.5566 17.5428 0.0000 -0.0000 -0.0000 -0.0000 -0.0000 -0.0000 14.4908 5.5018 -4.2781 39.4533 33.1113 -47.6528 -0.0001 -0.0001 -95.9227 0.8372 0.0903 11.2400 -0.0000 -0.0000 0.0000 -0.0000 -0.0000 0.0000 -29.8526 13.3664 -1.0798 57.6780 0.0000 0.0000 11.0364 -2.0403 -36.1446 -29.0935 0.0000 -0.0000 -6.2982 7.8827 19.4237 21.2230 0.0000 0.0000 -6.3659 -10.1055 1.7953 -14.1799 0.0000 -0.0000
 15.8315 -33.2836 35.5895 -5.8028 1.6904 -91.7474 4.2187 3.0356 -0.6695 0.7504 -1.2719 -0.1724 6.0325 2.7698 1.2666 2.1283 1.4012 -2.0308 4.9553 4.0720 -0.3941 0.6343 0.3081 -4.3790 -15.6972 12.9626 20.3300 -9.3480 11.5524 28.2639 -0.0000 0.0000 39.4135 7.2256 23.5655 17.3334 -0.0000 0.0000 0.0000 0.0000 -0.0000 -0.0000 14.4764 5.4541 -4.3621 39.5451 32.9301 -47.6990 -0.0001 -0.0001 -95.9666 0.3179 0.2505 10.6626 0.0000 0.0000 0.0000 -0.0000 -0.0000 0.0000 -30.4819 13.4300 -0.4903 58.5393 0.0000 0.0000 10.6925 -1.5222 -36.9393 -29.7095 0.0000 -0.0000 -5.8680 8.4312 19.4455 20.8733 0.0000 0.0000 -6.2936 -10.2101 1.8971 -14.1889 0.0000 -0.0000
 15.8002 -33.3616 35.5758 -6.1179 1.9098 -91.9249 4.3907 3.1936 -0.7084 0.8109 -1.1885 -0.1795 6.0468 2.7478 1.0593 2.1196 1.4053 -2.0905 4.9031 4.0658 -0.2212 0.6359 0.5363 -3.9820 -15.5586 12.9150 20.0489 -9.5110 11.2760 27.8649 -0.0000 0.0000 40.0642 7.4075 22.6430 17.0690 0.0000 -0.0000 -0.0000 -0.0000 -0.0000 -0.0000 14.4544 5.4191 -4.4285 39.6524 32.7357 -47.7550 -0.0001 -0.0001 -95.9955 -0.2915 0.4522 10.0812 -0.0000 0.0000 -0.0000 0.0000 0.0000 0.0000 -31.0707 13.4581 0.0640 59.3395 0.0000 0.0000 10.2038 -0.9654 -37.5612 -30.2459 0.0000 -0.0000 -5.4446 8.9636 19.4246 20.5097 0.0000 0.0000 -6.2199 -10.3113 2.0232 -14.1937 0.0000 -0.0000
 15.7623 -33.4363 35.5645 -6.4134 2.1362 -92.1018 4.5574 3.3436 -0.7421 0.8674 -1.1284 -0.1888 6.0590 2.7438 0.8573 2.1141 1.4087 -2.1409 4.8678 4.0614 -0.0497 0.6527 0.7541 -3.5798 -15.3658 12.8556 19.7303 -9.6647 11.0178 27.4594 -0.0000 0.0000 40.8181 7.7029 21.7994 16.7614 -0.0000 0.0000 -0.0000 0.0000 0.0000 0.0000 14.4242 5.3925 -4.4935 39.7837 32.5377 -47.8179 -0.0001 -0.0001 -96.0150 -0.9890 0.6919 9.5051 0.0000 0.0000 0.0000 0.0000 0.0000 -0.0000 -31.5882 13.4520 0.5868 60.0701 0.0000 0.0000 9.6100 -0.3849 -37.9870 -30.7270 0.0000 -0.0000 -4.9889 9.4785 19.3866 20.1169 0.0000 0.0000 -6.1435 -10.4040 2.1562 -14.1973 0.0000 -0.0000
 15.7191 -33.5071 35.5554 -6.6820 2.3444 -92.2830 4.6930 3.4712 -0.7698 0.9191 -1.0638 -0.1969 6.0737 2.7314 0.6710 2.1114 1.4146 -2.1955 4.8486 4.0630 0.1285 0.6808 0.9569 -3.1808 -15.1247 12.7785 19.3884 -9.8003 10.7814 27.0393 -0.0000 0.0000 41.6776 8.0830 21.0370 16.4271 -0.0000 0.0000 -0.0000 0.0000 -0.0000 0.0000 14.3885 5.3818 -4.5488 39.9352 32.3301 -47.8899 -0.0001 -0.0001 -96.0253 -1.7693 0.9616 8.9427 -0.0000 0.0000 -0.0000 0.0000 -0.0000 0.0000 -32.0611 13.4035 1.0769 60.7222 0.0000 0.0000 8.9554 0.1970 -38.2124 -31.1741 0.0000 -0.0000 -4.5330 9.9621 19.3511 19.7054 0.0000 0.0000 -6.0688 -10.4879 2.2832 -14.2018 0.0000 -0.0000
 15.6658 -33.5734 35.5500 -6.9163 2.6118 -92.4750 4.8741 3.5753 -0.7947 0.9701 -1.0020 -0.2017 6.0826 2.7173 0.5025 2.1105 1.4217 -2.2502 4.8485 4.0710 0.3147 0.7214 1.1445 -2.7910 -14.8318 12.6908 19.0244 -9.9176 10.5579 26.6082 -0.0000 0.0000 42.6353 8.5162 20.3522 16.0818 0.0000 -0.0000 0.0000 0.0000 -0.0000 -0.0000 14.3454 5.3744 -4.5879 40.1258 32.1267 -47.9893 -0.0001 -0.0001 -96.0273 -2.6192 1.2582 8.4012 -0.0000 -0.0000 -0.0000 0.0000 -0.0000 -0.0000 -32.3933 13.3120 1.5279 61.2761 0.0000 0.0000 8.2685 0.7633 -38.2427 -31.6011 0.0000 -0.0000 -3.9726 10.4085 19.3502 19.2457 0.0000 0.0000 -5.9940 -10.5544 2.3726 -14.2113 0.0000 -0.0000
 15.6115 -33.6368 35.5450 -7.1459 2.8011 -92.6792 4.9718 3.6865 -0.8081 1.0121 -0.9611 -0.2120 6.0935 2.7183 0.3516 2.1102 1.4232 -2.2921 4.8634 4.0907 0.4973 0.7686 1.3090 -2.4190 -14.4813 12.5927 18.6215 -10.0272 10.3486 26.1720 -0.0000 0.0000 43.6890 8.9753 19.7384 15.7369 0.0000 -0.0000 0.0000 0.0000 0.0000 0.0000 14.3047 5.3810 -4.6371 40.3287 31.9179 -48.0906 -0.0001 -0.0001 -96.0302 -3.5279 1.5659 7.8890 0.0000 -0.0000 0.0000 -0.0000 0.0000 -0.0000 -32.7659 13.2025 1.9612 61.7511 0.0000 0.0000 7.5878 1.2909 -38.0959 -32.0163 0.0000 -0.0000 -3.4917 10.8408 19.3676 18.7842 0.0000 0.0000 -5.9148 -10.6076 2.4569 -14.2277 0.0000 -0.0000
 15.5541 -33.6946 35.5417 -7.3338 2.9497 -92.8943 5.0255 3.7654 -0.8222 1.0462 -0.9153 -0.2157 6.1050 2.7075 0.2233 2.1129 1.4256 -2.3316 4.8890 4.1176 0.6806 0.8204 1.4523 -2.0677 -14.0826 12.4727 18.1950 -10.1242 10.1574 25.7242 -0.0000 0.0000 44.8359 9.4315 19.1856 15.4056 -0.0000 0.0000 0.0000 0.0000 0.0000 0.0000 14.2641 5.3956 -4.6816 40.5522 31.7089 -48.2098 -0.0001 -0.0001 -96.0300 -4.4754 1.8793 7.4092 0.0000 -0.0000 0.0000 0.0000 -0.0000 0.0000 -33.1146 13.0406 2.3527 62.1155 0.0000 0.0000 6.9384 1.7634 -37.8161 -32.4187 0.0000 -0.0000 -3.0499 11.2123 19.4276 18.3339 0.0000 0.0000 -5.8492 -10.6480 2.5022 -14.2475 0.0000 -0.0000
